PathFileType	4	(X/Y/Z)	C:/Users/dbak576/Desktop/Duncan Bakke Modelling Files/H20s1/Static_H20s1.trc	
DataRate	CameraRate	NumFrames	NumMarkers	Units	OrigDataRate	OrigDataStartFrame	OrigNumFrames	
200.00	200.00	4	61	mm	200.00	717	672	
Frame#	Time	LFHD			RFHD			LBHD			RBHD			C7			T10			CLAV			STRN			RBack			LASI			RASI			LPSI			RPSI			RACR1			RUA1			RElbow			RElbowM			RFA1			RWRR			RWRU			RCAR			LACR1			LUA1			LElbow			LElbowM			LFA1			LWRR			LWRU			LCAR			RTH1			RTH3			RTH2			RTH4			RLFC			RMFC			RTB1			RTB3			RTB2			RTB4			RLMAL			RMMAL			RCAL			RMT1			RMT5			RToe			LTH1			LTH3			LTH2			LTH4			LLFC			LMFC			LTB1			LTB3			LTB2			LTB4			LLMAL			LMMAL			LCAL			LMT1			LMT5			LToe			
		X1	Y1	Z1	X2	Y2	Z2	X3	Y3	Z3	X4	Y4	Z4	X5	Y5	Z5	X6	Y6	Z6	X7	Y7	Z7	X8	Y8	Z8	X9	Y9	Z9	X10	Y10	Z10	X11	Y11	Z11	X12	Y12	Z12	X13	Y13	Z13	X14	Y14	Z14	X15	Y15	Z15	X16	Y16	Z16	X17	Y17	Z17	X18	Y18	Z18	X19	Y19	Z19	X20	Y20	Z20	X21	Y21	Z21	X22	Y22	Z22	X23	Y23	Z23	X24	Y24	Z24	X25	Y25	Z25	X26	Y26	Z26	X27	Y27	Z27	X28	Y28	Z28	X29	Y29	Z29	X30	Y30	Z30	X31	Y31	Z31	X32	Y32	Z32	X33	Y33	Z33	X34	Y34	Z34	X35	Y35	Z35	X36	Y36	Z36	X37	Y37	Z37	X38	Y38	Z38	X39	Y39	Z39	X40	Y40	Z40	X41	Y41	Z41	X42	Y42	Z42	X43	Y43	Z43	X44	Y44	Z44	X45	Y45	Z45	X46	Y46	Z46	X47	Y47	Z47	X48	Y48	Z48	X49	Y49	Z49	X50	Y50	Z50	X51	Y51	Z51	X52	Y52	Z52	X53	Y53	Z53	X54	Y54	Z54	X55	Y55	Z55	X56	Y56	Z56	X57	Y57	Z57	X58	Y58	Z58	X59	Y59	Z59	X60	Y60	Z60	X61	Y61	Z61	

337	1.680	-25.82735	-340.84116	1651.44421	55.35258	-344.44144	1656.45703	-58.50747	-516.26672	1600.49878	79.78912	-523.23468	1599.25684	9.12101	-530.42267	1455.51062	-8.57945	-559.26093	1134.88403	1.52761	-377.85486	1401.70081	-4.06068	-339.69510	1238.10266	91.14801	-591.50574	1354.88660	-158.34357	-359.83359	966.80969	146.82275	-367.87769	960.04938	-68.92803	-537.23621	977.58197	34.72182	-547.50574	976.73260	120.97755	-494.63766	1459.03394	291.26331	-481.23160	1414.83875	413.13828	-448.54874	1392.36841	395.82242	-382.15363	1336.03149	540.50305	-400.02707	1439.81787	647.60822	-306.09607	1496.03198	658.12354	-327.23813	1422.33142	714.16229	-313.75342	1466.87610	-132.45215	-501.41721	1465.04309	-311.93475	-482.42746	1415.24487	-426.38458	-446.47800	1389.97937	-394.63528	-407.58588	1330.49792	-554.59778	-392.57977	1465.88391	-638.06482	-309.05475	1507.17969	-657.03497	-315.07880	1430.34106	-709.28156	-318.60098	1492.26550	203.10014	-442.37448	764.95026	201.18947	-444.48834	575.85052	185.16571	-372.93314	671.74664	205.00650	-442.79007	667.91833	196.65167	-448.25415	472.02966	65.75535	-463.58179	439.22003	132.51067	-413.08279	369.47406	155.51826	-440.85522	182.24200	215.61429	-446.54913	287.16635	146.31131	-424.61670	278.16086	199.55460	-512.83624	88.43581	115.76483	-476.62933	92.37400	159.77220	-558.99194	35.00409	140.62610	-352.07397	38.66643	227.05011	-389.40729	33.60414	167.32538	-295.43304	26.16518	-210.45982	-409.59412	770.22174	-207.26044	-430.19464	583.37567	-174.92799	-353.49393	665.27350	-213.97649	-420.66812	672.60840	-203.81917	-452.87793	469.50211	-78.77129	-474.32062	435.42337	-160.07167	-420.52179	371.07779	-170.60677	-463.56335	190.17862	-228.36531	-476.78836	292.27383	-164.94453	-443.61917	280.99786	-204.49080	-547.43939	79.88891	-120.15279	-509.58911	85.81088	-160.18684	-593.80658	32.85815	-143.56802	-379.55460	35.92509	-232.98228	-413.18628	32.03894	-160.40614	-333.03436	26.91774 
338	1.685	-25.83383	-340.86948	1651.43701	55.35971	-344.48526	1656.45264	-58.49405	-516.28070	1600.48608	79.75730	-523.24554	1599.21423	9.12325	-530.43372	1455.50586	-8.55535	-559.27264	1134.88318	1.51043	-377.85336	1401.71204	-4.06438	-339.69284	1238.09778	91.14251	-591.50879	1354.87842	-158.33752	-359.84082	966.80103	146.84143	-367.91312	960.05762	-68.92638	-537.42377	977.46643	34.72029	-547.49548	976.73914	120.97272	-494.63425	1459.03931	291.26645	-481.21793	1414.82117	413.13156	-448.54391	1392.36938	395.79254	-382.10959	1336.05908	540.49146	-400.02911	1439.83850	647.63654	-306.09134	1496.02710	658.11829	-327.17181	1422.30627	714.16608	-313.72806	1466.85132	-132.41972	-501.42657	1465.06348	-311.98462	-482.46353	1415.29663	-426.36295	-446.48575	1389.99561	-394.67078	-407.57980	1330.49512	-554.58044	-392.62408	1465.94031	-638.02460	-309.09070	1507.21069	-657.03314	-315.11737	1430.40369	-709.23499	-318.61786	1492.30627	203.10286	-442.37482	764.95294	201.19905	-444.51199	575.86499	185.18001	-372.95285	671.75256	204.98892	-442.82162	667.90686	196.57820	-448.26965	472.02609	65.77692	-463.50699	439.21161	132.50645	-413.11765	369.47089	155.52650	-440.85635	182.23732	215.61882	-446.55655	287.13620	146.25349	-424.52927	278.19223	199.55789	-512.84021	88.41900	115.49887	-476.71289	92.48466	159.77414	-558.99286	35.01877	140.60674	-352.07318	38.65691	227.05096	-389.41583	33.59713	167.32928	-295.45465	26.14217	-210.48204	-409.60187	770.21777	-207.24678	-430.19983	583.38037	-174.93599	-353.50589	665.27271	-213.97307	-420.68967	672.62146	-203.82242	-452.90930	469.50256	-78.78574	-474.31656	435.40952	-160.09381	-420.55832	371.06512	-170.60715	-463.58078	190.18034	-228.30711	-476.70828	292.23730	-164.93294	-443.60617	281.01382	-204.54968	-547.44263	79.86372	-120.12841	-509.59814	85.83962	-160.17549	-593.78278	32.86409	-143.58630	-379.57471	35.95973	-232.98375	-413.17355	32.05106	-160.39381	-333.02740	26.90091 
339	1.690	-25.81909	-340.91010	1651.44739	55.37419	-344.50607	1656.45068	-58.50926	-516.29474	1600.48462	79.83330	-523.27496	1599.31580	9.12543	-530.43018	1455.50244	-8.54618	-559.27966	1134.88342	1.47589	-377.85312	1401.72876	-4.05921	-339.69714	1238.09680	91.15311	-591.50378	1354.87891	-158.32397	-359.84698	966.81818	146.77483	-367.93707	960.03033	-68.91454	-537.54053	977.40845	34.71544	-547.51392	976.75000	120.97095	-494.63116	1459.02014	291.26831	-481.21240	1414.81702	413.12183	-448.52438	1392.36597	395.75568	-382.06989	1336.06897	540.49384	-400.03253	1439.82739	647.57465	-306.09357	1496.07336	658.11890	-327.12006	1422.32080	714.03876	-313.69864	1466.80920	-132.42972	-501.42969	1465.04944	-311.96970	-482.49503	1415.27856	-426.35452	-446.52115	1390.03821	-394.64017	-407.55011	1330.52612	-554.62018	-392.68033	1466.02197	-638.03082	-309.12344	1507.27014	-657.01483	-315.06888	1430.40369	-709.22180	-318.57758	1492.33582	203.10458	-442.37509	764.95416	201.00256	-444.52289	575.88232	185.16206	-372.96851	671.77081	204.97978	-442.83954	667.89832	196.60225	-448.28177	472.04257	65.76935	-463.47330	439.20215	132.50999	-413.10724	369.47189	155.50757	-440.86212	182.25400	215.64044	-446.55835	287.15158	146.21466	-424.48517	278.21320	199.56126	-512.84271	88.41030	115.73594	-476.65494	92.45930	159.78352	-558.97705	35.02277	140.62733	-352.07626	38.66227	227.02289	-389.41684	33.57872	167.32198	-295.47678	26.14862	-210.48172	-409.64050	770.24847	-207.25710	-430.20328	583.38391	-174.95189	-353.54626	665.26544	-213.95386	-420.68875	672.60724	-203.82133	-452.92584	469.48950	-78.80273	-474.32785	435.36850	-160.08702	-420.58243	371.05630	-170.60359	-463.55911	190.16519	-228.31021	-476.71454	292.23325	-164.96460	-443.60864	281.00562	-204.54620	-547.45062	79.86739	-120.11279	-509.60379	85.83071	-160.15234	-593.74573	32.85535	-143.58315	-379.59311	36.01583	-233.05782	-413.21524	32.01563	-160.43089	-333.01923	26.88845 
340	1.695	-25.81937	-340.93497	1651.48035	55.37777	-344.50806	1656.44519	-58.52430	-516.34894	1600.49121	79.82598	-523.31152	1599.26428	9.12996	-530.42523	1455.50024	-8.54881	-559.28119	1134.88403	1.46239	-377.87390	1401.73291	-4.05122	-339.70581	1238.09680	91.17403	-591.51715	1354.88159	-158.32098	-359.84915	966.82813	146.74426	-367.96921	960.01953	-68.92622	-537.57013	977.40662	34.71527	-547.55939	976.74915	120.97320	-494.63327	1459.01709	291.29205	-481.22394	1414.82190	413.11771	-448.51404	1392.36365	395.69086	-382.00769	1336.07251	540.47693	-400.02219	1439.81567	647.58911	-306.07214	1496.03491	658.11279	-327.11490	1422.30774	713.95258	-313.69318	1466.79053	-132.44011	-501.42462	1465.06653	-311.95776	-482.51620	1415.33643	-426.36771	-446.54553	1390.06482	-394.64127	-407.58514	1330.57996	-554.67059	-392.73892	1466.09180	-638.04266	-309.15042	1507.32715	-656.95416	-314.97278	1430.43445	-709.22540	-318.57455	1492.34985	203.10497	-442.37518	764.95410	200.98390	-444.52115	575.83264	185.17993	-372.99924	671.79089	205.03273	-442.88675	668.02734	196.65182	-448.27832	472.04752	65.67006	-463.57306	439.16788	132.60437	-413.15390	369.54971	155.50919	-440.85822	182.25037	215.66939	-446.55569	287.16690	146.17580	-424.48407	278.22403	199.57018	-512.85559	88.41489	116.02451	-476.58472	92.34017	159.78600	-558.97736	35.01674	140.62694	-352.09192	38.65911	227.03665	-389.41306	33.58712	167.32645	-295.49747	26.12666	-210.46977	-409.66626	770.22302	-207.25700	-430.23373	583.38263	-174.95474	-353.56531	665.26355	-213.96130	-420.68582	672.59906	-203.79744	-452.93909	469.46735	-78.80386	-474.32642	435.36957	-160.06918	-420.58914	371.05115	-170.62555	-463.56628	190.13240	-228.35112	-476.75885	292.24069	-164.97906	-443.62454	280.99841	-204.50624	-547.43494	79.86109	-120.08938	-509.59460	85.78762	-160.18172	-593.79333	32.83564	-143.60072	-379.59079	36.01126	-233.03444	-413.21457	32.04280	-160.46066	-333.04742	26.89170 
